<svg xmlns="http://www.w3.org/2000/svg" width="1280" height="640" viewBox="0 0 1280 640"><defs><radialGradient id="g"><stop stop-color="#274d43"/><stop offset="1" stop-color="#0c191c"/></radialGradient></defs><rect width="1280" height="640" fill="#0c191c"/><rect x="760" width="520" height="640" fill="url(#g)"/><g stroke="#294045" fill="none"><path d="M795 90V550M875 90V550M955 90V550M1035 90V550M1115 90V550M1195 90V550 M780 110H1240M780 190H1240M780 270H1240M780 350H1240M780 430H1240M780 510H1240" opacity=".5"/><path d="M980 116C1112 116 1140 204 1135 305S1080 478 995 491C910 478 855 410 851 305S860 116 980 116Z" stroke="#9ee9ce" stroke-width="2"/><path d="M870 266 926 246 982 280 1041 246 1126 266 M926 246 928 332 980 374 1040 332 1041 246 M928 332 980 358 1040 332 M928 421 980 442 1040 421" stroke="#88b6df" stroke-width="2"/></g><g fill="#9ee9ce"><circle cx="926" cy="246" r="6"/><circle cx="1041" cy="246" r="6"/><circle cx="980" cy="374" r="6"/><circle cx="980" cy="442" r="6"/></g><g font-family="Arial,sans-serif"><text x="70" y="77" fill="#9ee9ce" font-size="15" letter-spacing="4">FACE FRAUD ATLAS / OPEN RESEARCH</text><text x="70" y="235" fill="#f1f5ef" font-size="82" font-weight="700" letter-spacing="-4">Face fraud.</text><text x="70" y="330" fill="#9ee9ce" font-size="82" font-weight="700" letter-spacing="-4">Financial trust.</text><text x="74" y="400" fill="#9bafb0" font-size="22">Find evidence. Compare benchmarks. Build evaluations.</text><g fill="#f1f5ef" font-size="33" font-weight="700"><text x="74" y="510">141</text><text x="285" y="510">12</text><text x="472" y="510">10</text><text x="642" y="510">4</text></g><g fill="#9bafb0" font-size="13"><text x="74" y="543">RESEARCH RECORDS</text><text x="285" y="543">BENCHMARKS</text><text x="472" y="543">RESEARCH FIGURES</text><text x="642" y="543">EVIDENCE CLAIMS</text></g><text x="74" y="604" fill="#6f9391" font-size="12">A selective survey companion · Research draft · 2012–2026</text></g></svg>